<svg width="271" height="120" viewBox="0 0 271 120" fill="none" xmlns="http://www.w3.org/2000/svg">
<g clip-path="url(#clip0_130_873)">
<path d="M33.3184 84.832H58.8134" stroke="#A51BC8" stroke-width="2.2124" stroke-miterlimit="10" stroke-linecap="round" stroke-linejoin="round"/>
<path d="M33.3184 90.2012H58.8134" stroke="#A51BC8" stroke-width="2.2124" stroke-miterlimit="10" stroke-linecap="round" stroke-linejoin="round"/>
<path d="M33.3184 95.5703H58.8134" stroke="#A51BC8" stroke-width="2.2124" stroke-miterlimit="10" stroke-linecap="round" stroke-linejoin="round"/>
<path d="M33.3184 100.939H58.8134" stroke="#A51BC8" stroke-width="2.2124" stroke-miterlimit="10" stroke-linecap="round" stroke-linejoin="round"/>
<path d="M33.3184 106.309H58.8134" stroke="#A51BC8" stroke-width="2.2124" stroke-miterlimit="10" stroke-linecap="round" stroke-linejoin="round"/>
<path d="M33.3184 111.678H58.8134" stroke="#A51BC8" stroke-width="2.2124" stroke-miterlimit="10" stroke-linecap="round" stroke-linejoin="round"/>
<path d="M33.3184 117.047H58.8134" stroke="#A51BC8" stroke-width="2.2124" stroke-miterlimit="10" stroke-linecap="round" stroke-linejoin="round"/>
<path d="M75.6321 63.624H101.127" stroke="#B3FF00" stroke-width="2.2124" stroke-miterlimit="10" stroke-linecap="round" stroke-linejoin="round"/>
<path d="M75.6321 68.9932H101.127" stroke="#B3FF00" stroke-width="2.2124" stroke-miterlimit="10" stroke-linecap="round" stroke-linejoin="round"/>
<path d="M75.6321 74.3623H101.127" stroke="#B3FF00" stroke-width="2.2124" stroke-miterlimit="10" stroke-linecap="round" stroke-linejoin="round"/>
<path d="M75.6321 79.7314H101.127" stroke="#B3FF00" stroke-width="2.2124" stroke-miterlimit="10" stroke-linecap="round" stroke-linejoin="round"/>
<path d="M75.6321 84.9663H101.127" stroke="#B3FF00" stroke-width="2.2124" stroke-miterlimit="10" stroke-linecap="round" stroke-linejoin="round"/>
<path d="M75.6321 90.3354H101.127" stroke="#B3FF00" stroke-width="2.2124" stroke-miterlimit="10" stroke-linecap="round" stroke-linejoin="round"/>
<path d="M75.6321 95.7046H101.127" stroke="#B3FF00" stroke-width="2.2124" stroke-miterlimit="10" stroke-linecap="round" stroke-linejoin="round"/>
<path d="M75.6321 101.074H101.127" stroke="#B3FF00" stroke-width="2.2124" stroke-miterlimit="10" stroke-linecap="round" stroke-linejoin="round"/>
<path d="M75.6321 106.443H101.127" stroke="#B3FF00" stroke-width="2.2124" stroke-miterlimit="10" stroke-linecap="round" stroke-linejoin="round"/>
<path d="M75.6321 111.678H101.127" stroke="#B3FF00" stroke-width="2.2124" stroke-miterlimit="10" stroke-linecap="round" stroke-linejoin="round"/>
<path d="M75.6321 117.047H101.127" stroke="#B3FF00" stroke-width="2.2124" stroke-miterlimit="10" stroke-linecap="round" stroke-linejoin="round"/>
<path d="M117.946 21.4766H143.441" stroke="#A51BC8" stroke-width="2.2124" stroke-miterlimit="10" stroke-linecap="round" stroke-linejoin="round"/>
<path d="M117.946 26.8457H143.441" stroke="#A51BC8" stroke-width="2.2124" stroke-miterlimit="10" stroke-linecap="round" stroke-linejoin="round"/>
<path d="M117.946 32.0806H143.441" stroke="#A51BC8" stroke-width="2.2124" stroke-miterlimit="10" stroke-linecap="round" stroke-linejoin="round"/>
<path d="M117.946 37.4497H143.441" stroke="#A51BC8" stroke-width="2.2124" stroke-miterlimit="10" stroke-linecap="round" stroke-linejoin="round"/>
<path d="M117.946 42.8188H143.441" stroke="#A51BC8" stroke-width="2.2124" stroke-miterlimit="10" stroke-linecap="round" stroke-linejoin="round"/>
<path d="M117.946 48.0537H143.441" stroke="#A51BC8" stroke-width="2.2124" stroke-miterlimit="10" stroke-linecap="round" stroke-linejoin="round"/>
<path d="M117.946 53.4229H143.441" stroke="#A51BC8" stroke-width="2.2124" stroke-miterlimit="10" stroke-linecap="round" stroke-linejoin="round"/>
<path d="M117.946 58.6577H143.441" stroke="#A51BC8" stroke-width="2.2124" stroke-miterlimit="10" stroke-linecap="round" stroke-linejoin="round"/>
<path d="M117.946 64.0269H143.441" stroke="#A51BC8" stroke-width="2.2124" stroke-miterlimit="10" stroke-linecap="round" stroke-linejoin="round"/>
<path d="M117.946 69.396H143.441" stroke="#A51BC8" stroke-width="2.2124" stroke-miterlimit="10" stroke-linecap="round" stroke-linejoin="round"/>
<path d="M117.946 74.6309H143.441" stroke="#A51BC8" stroke-width="2.2124" stroke-miterlimit="10" stroke-linecap="round" stroke-linejoin="round"/>
<path d="M117.946 80H143.441" stroke="#A51BC8" stroke-width="2.2124" stroke-miterlimit="10" stroke-linecap="round" stroke-linejoin="round"/>
<path d="M117.946 85.2349H143.441" stroke="#A51BC8" stroke-width="2.2124" stroke-miterlimit="10" stroke-linecap="round" stroke-linejoin="round"/>
<path d="M117.946 90.604H143.441" stroke="#A51BC8" stroke-width="2.2124" stroke-miterlimit="10" stroke-linecap="round" stroke-linejoin="round"/>
<path d="M117.946 95.9731H143.441" stroke="#A51BC8" stroke-width="2.2124" stroke-miterlimit="10" stroke-linecap="round" stroke-linejoin="round"/>
<path d="M117.946 101.208H143.441" stroke="#A51BC8" stroke-width="2.2124" stroke-miterlimit="10" stroke-linecap="round" stroke-linejoin="round"/>
<path d="M117.946 106.577H143.441" stroke="#A51BC8" stroke-width="2.2124" stroke-miterlimit="10" stroke-linecap="round" stroke-linejoin="round"/>
<path d="M117.946 111.812H143.441" stroke="#A51BC8" stroke-width="2.2124" stroke-miterlimit="10" stroke-linecap="round" stroke-linejoin="round"/>
<path d="M117.946 117.181H143.441" stroke="#A51BC8" stroke-width="2.2124" stroke-miterlimit="10" stroke-linecap="round" stroke-linejoin="round"/>
<path d="M160.259 79.7314H185.754" stroke="#B3FF00" stroke-width="2.2124" stroke-miterlimit="10" stroke-linecap="round" stroke-linejoin="round"/>
<path d="M160.259 85.1006H185.754" stroke="#B3FF00" stroke-width="2.2124" stroke-miterlimit="10" stroke-linecap="round" stroke-linejoin="round"/>
<path d="M160.259 90.4697H185.754" stroke="#B3FF00" stroke-width="2.2124" stroke-miterlimit="10" stroke-linecap="round" stroke-linejoin="round"/>
<path d="M160.259 95.8389H185.754" stroke="#B3FF00" stroke-width="2.2124" stroke-miterlimit="10" stroke-linecap="round" stroke-linejoin="round"/>
<path d="M160.259 101.074H185.754" stroke="#B3FF00" stroke-width="2.2124" stroke-miterlimit="10" stroke-linecap="round" stroke-linejoin="round"/>
<path d="M160.259 106.443H185.754" stroke="#B3FF00" stroke-width="2.2124" stroke-miterlimit="10" stroke-linecap="round" stroke-linejoin="round"/>
<path d="M160.259 111.812H185.754" stroke="#B3FF00" stroke-width="2.2124" stroke-miterlimit="10" stroke-linecap="round" stroke-linejoin="round"/>
<path d="M160.259 117.181H185.754" stroke="#B3FF00" stroke-width="2.2124" stroke-miterlimit="10" stroke-linecap="round" stroke-linejoin="round"/>
<path d="M202.573 21.4766H228.068" stroke="#A51BC8" stroke-width="2.2124" stroke-miterlimit="10" stroke-linecap="round" stroke-linejoin="round"/>
<path d="M202.573 26.8457H228.068" stroke="#A51BC8" stroke-width="2.2124" stroke-miterlimit="10" stroke-linecap="round" stroke-linejoin="round"/>
<path d="M202.573 32.0806H228.068" stroke="#A51BC8" stroke-width="2.2124" stroke-miterlimit="10" stroke-linecap="round" stroke-linejoin="round"/>
<path d="M202.573 37.4497H228.068" stroke="#A51BC8" stroke-width="2.2124" stroke-miterlimit="10" stroke-linecap="round" stroke-linejoin="round"/>
<path d="M202.573 42.8188H228.068" stroke="#A51BC8" stroke-width="2.2124" stroke-miterlimit="10" stroke-linecap="round" stroke-linejoin="round"/>
<path d="M202.573 48.0537H228.068" stroke="#A51BC8" stroke-width="2.2124" stroke-miterlimit="10" stroke-linecap="round" stroke-linejoin="round"/>
<path d="M202.573 53.4229H228.068" stroke="#A51BC8" stroke-width="2.2124" stroke-miterlimit="10" stroke-linecap="round" stroke-linejoin="round"/>
<path d="M202.573 58.6577H228.068" stroke="#A51BC8" stroke-width="2.2124" stroke-miterlimit="10" stroke-linecap="round" stroke-linejoin="round"/>
<path d="M202.573 64.0269H228.068" stroke="#A51BC8" stroke-width="2.2124" stroke-miterlimit="10" stroke-linecap="round" stroke-linejoin="round"/>
<path d="M202.573 69.396H228.068" stroke="#A51BC8" stroke-width="2.2124" stroke-miterlimit="10" stroke-linecap="round" stroke-linejoin="round"/>
<path d="M202.573 74.6309H228.068" stroke="#A51BC8" stroke-width="2.2124" stroke-miterlimit="10" stroke-linecap="round" stroke-linejoin="round"/>
<path d="M202.573 80H228.068" stroke="#A51BC8" stroke-width="2.2124" stroke-miterlimit="10" stroke-linecap="round" stroke-linejoin="round"/>
<path d="M202.573 85.2349H228.068" stroke="#A51BC8" stroke-width="2.2124" stroke-miterlimit="10" stroke-linecap="round" stroke-linejoin="round"/>
<path d="M202.573 90.604H228.068" stroke="#A51BC8" stroke-width="2.2124" stroke-miterlimit="10" stroke-linecap="round" stroke-linejoin="round"/>
<path d="M202.573 95.9731H228.068" stroke="#A51BC8" stroke-width="2.2124" stroke-miterlimit="10" stroke-linecap="round" stroke-linejoin="round"/>
<path d="M202.573 101.208H228.068" stroke="#A51BC8" stroke-width="2.2124" stroke-miterlimit="10" stroke-linecap="round" stroke-linejoin="round"/>
<path d="M202.573 106.577H228.068" stroke="#A51BC8" stroke-width="2.2124" stroke-miterlimit="10" stroke-linecap="round" stroke-linejoin="round"/>
<path d="M202.573 111.812H228.068" stroke="#A51BC8" stroke-width="2.2124" stroke-miterlimit="10" stroke-linecap="round" stroke-linejoin="round"/>
<path d="M202.573 117.181H228.068" stroke="#A51BC8" stroke-width="2.2124" stroke-miterlimit="10" stroke-linecap="round" stroke-linejoin="round"/>
<path d="M244.887 79.7314H270.382" stroke="#B3FF00" stroke-width="2.2124" stroke-miterlimit="10" stroke-linecap="round" stroke-linejoin="round"/>
<path d="M244.887 85.1006H270.382" stroke="#B3FF00" stroke-width="2.2124" stroke-miterlimit="10" stroke-linecap="round" stroke-linejoin="round"/>
<path d="M244.887 90.4697H270.382" stroke="#B3FF00" stroke-width="2.2124" stroke-miterlimit="10" stroke-linecap="round" stroke-linejoin="round"/>
<path d="M244.887 95.8389H270.382" stroke="#B3FF00" stroke-width="2.2124" stroke-miterlimit="10" stroke-linecap="round" stroke-linejoin="round"/>
<path d="M244.887 101.074H270.382" stroke="#B3FF00" stroke-width="2.2124" stroke-miterlimit="10" stroke-linecap="round" stroke-linejoin="round"/>
<path d="M244.887 106.443H270.382" stroke="#B3FF00" stroke-width="2.2124" stroke-miterlimit="10" stroke-linecap="round" stroke-linejoin="round"/>
<path d="M244.887 111.812H270.382" stroke="#B3FF00" stroke-width="2.2124" stroke-miterlimit="10" stroke-linecap="round" stroke-linejoin="round"/>
<path d="M244.887 117.181H270.382" stroke="#B3FF00" stroke-width="2.2124" stroke-miterlimit="10" stroke-linecap="round" stroke-linejoin="round"/>
<path d="M4.74487 46.056C15.0881 46.056 15.0881 58.985 25.4313 58.985C35.7745 58.985 35.7745 46.056 46.2069 46.056C56.5502 46.056 56.5502 34.1078 66.9826 34.1078C77.3258 34.1078 77.3258 21.7137 87.7582 21.7137C98.1014 21.7137 98.1014 46.7693 108.534 46.7693C118.877 46.7693 118.877 34.1078 129.309 34.1078C139.653 34.1078 139.653 54.0809 150.085 54.0809C160.428 54.0809 160.428 37.2286 170.861 37.2286C181.204 37.2286 181.204 28.5795 191.636 28.5795C201.979 28.5795 201.979 8.33887 212.412 8.33887" stroke="white" stroke-width="2" stroke-miterlimit="10" stroke-linecap="round" stroke-linejoin="round"/>
<path d="M215.8 8.33871C215.8 6.2879 214.106 4.59375 212.055 4.59375C210.004 4.59375 208.31 6.2879 208.31 8.33871C208.31 10.3895 210.004 12.0837 212.055 12.0837C214.106 11.9945 215.8 10.3895 215.8 8.33871Z" fill="white"/>
<path d="M4.74496 49.0871C6.81324 49.0871 8.48992 47.4104 8.48992 45.3421C8.48992 43.2738 6.81324 41.5972 4.74496 41.5972C2.67668 41.5972 1 43.2738 1 45.3421C1 47.4104 2.67668 49.0871 4.74496 49.0871Z" fill="white"/>
</g>
<defs>
<clipPath id="clip0_130_873">
<rect width="270" height="120" fill="white" transform="translate(0.850098)"/>
</clipPath>
</defs>
</svg>
