<svg width="20" height="20" viewBox="0 0 20 20" fill="none" xmlns="http://www.w3.org/2000/svg">
<path fill-rule="evenodd" clip-rule="evenodd" d="M7.72437 18.2005C7.72437 18.642 7.36641 19 6.92483 19L3.84966 19C2.2758 19 1 17.7242 1 16.1503L1 3.84966C1 2.2758 2.2758 0.999999 3.84966 0.999999L6.92483 0.999999C7.36641 0.999999 7.72438 1.35797 7.72438 1.79954C7.72438 2.24112 7.36641 2.59909 6.92483 2.59909L3.84966 2.59909C3.15896 2.59909 2.59909 3.15896 2.59909 3.84966L2.59909 16.1503C2.59909 16.841 3.15896 17.4009 3.84966 17.4009L6.92483 17.4009C7.36641 17.4009 7.72437 17.7589 7.72437 18.2005ZM13.5349 14.6656C13.2226 14.3533 13.2226 13.8471 13.5349 13.5349L16.2702 10.7995L5.89977 10.7995C5.4582 10.7995 5.10023 10.4416 5.10023 10C5.10023 9.55842 5.4582 9.20045 5.89977 9.20045L16.2702 9.20045L13.5349 6.46513C13.2226 6.15289 13.2226 5.64665 13.5349 5.33441C13.8471 5.02217 14.3534 5.02217 14.6656 5.33441L18.7658 9.43464C19.0781 9.74688 19.0781 10.2531 18.7658 10.5654L14.6656 14.6656C14.3533 14.9778 13.8471 14.9778 13.5349 14.6656Z" fill="#CCCCCD"/>
</svg>
