<svg fill="none" xmlns="http://www.w3.org/2000/svg" viewBox="0 0 20 22"><path d="M14.557 8a8.446 8.446 0 0 0 4.927 1.576V6.043c-.348 0-.694-.036-1.034-.108v2.78a8.448 8.448 0 0 1-4.927-1.575v7.21a6.532 6.532 0 0 1-6.534 6.532 6.505 6.505 0 0 1-3.638-1.105 6.516 6.516 0 0 0 4.672 1.965 6.533 6.533 0 0 0 6.535-6.531v-7.21Zm1.277-3.564a4.923 4.923 0 0 1-1.277-2.883v-.455h-.98a4.946 4.946 0 0 0 2.257 3.338Zm-10.2 12.573a2.988 2.988 0 0 1 2.38-4.796c-.001 0 0 0 0 0 .323 0 .635.052.927.146l-.022-.006V8.741a6.396 6.396 0 0 0-1.041-.06h.007v2.812a2.993 2.993 0 0 0-3.896 2.848c0 1.166.669 2.176 1.644 2.668Z" fill="#FF004F"/><path d="M13.554 7.15a8.447 8.447 0 0 0 4.926 1.576V5.945a4.945 4.945 0 0 1-2.615-1.5 4.947 4.947 0 0 1-2.257-3.337h-2.575v14.113a2.989 2.989 0 0 1-5.369 1.798 2.987 2.987 0 0 1 2.252-5.516V8.69a6.532 6.532 0 0 0-4.534 11.096 6.506 6.506 0 0 0 3.638 1.105 6.533 6.533 0 0 0 6.534-6.531V7.15Z" fill="#fff"/><path d="M18.494 5.971V5.22a4.928 4.928 0 0 1-2.616-.746 4.94 4.94 0 0 0 2.583 1.492l.033.006ZM13.62 1.135A4.42 4.42 0 0 1 13.57.75l-.002-.02V.274h-3.556v14.113a2.988 2.988 0 0 1-4.334 2.658 2.989 2.989 0 0 0 5.368-1.798V1.135h2.576ZM7.93 8.718v-.8a6.533 6.533 0 0 0-7.431 6.47 6.524 6.524 0 0 0 2.896 5.426A6.532 6.532 0 0 1 7.93 8.718Z" fill="#00F2EA"/></svg>